# xmcd
#
# Track frame offsets:
#	150
#	19483
#	37987
#	59728
#	78131
#	99950
#	127436
#	156049
#	176214
#	199095
#	215565
#	238869
#	255480
#	270870
#	291869
#	314486
#
# Disc length: 4427 seconds
#
# Revision: 1
# Processed by: cddbd v1.5.2PL0 Copyright (c) Steve Scherf et al.
# Submitted via: audiograbber 1.83.01
#
DISCID=eb114910
DTITLE=Madonna - Hard Candy (Deluxe Version)
DYEAR=2008
DGENRE=Pop
TTITLE0=Candy Shop
TTITLE1=4 Minutes (feat. Justin Timberlake and Timbaland)
TTITLE2=Give It 2 Me
TTITLE3=Heartbeat
TTITLE4=Miles Away
TTITLE5=She's Not Me
TTITLE6=Incredible
TTITLE7=Beat Goes On (feat. Kanye West)
TTITLE8=Dance 2night
TTITLE9=Spanish Lesson
TTITLE10=Devil Wouldn´t Recognize You
TTITLE11=Voices
TTITLE12=4 Minutes (feat. Justin Timberlake and Timbaland) [Peter Saves New York 
TTITLE12=Edit]
TTITLE13=4 Minutes (feat. Justin Timberlake and Timbaland) [Junkie XL Remix Edit]
TTITLE14=Give It 2 Me (Paul Oakenfold Edit)
TTITLE15=Ring My Bell (Bonus Track)
EXTD=
EXTT0=
EXTT1=
EXTT2=
EXTT3=
EXTT4=
EXTT5=
EXTT6=
EXTT7=
EXTT8=
EXTT9=
EXTT10=
EXTT11=
EXTT12=
EXTT13=
EXTT14=
EXTT15=
PLAYORDER=
